<svg width="24" height="25" viewBox="0 0 24 25" fill="none" xmlns="http://www.w3.org/2000/svg">
<path d="M14.8284 12.1475L16.2426 13.5617L19.071 10.7333C20.6331 9.17111 20.6331 6.63845 19.071 5.07636C17.509 3.51426 14.9763 3.51426 13.4142 5.07636L10.5858 7.90478L12 9.319L14.8284 6.49057C15.6095 5.70952 16.8758 5.70952 17.6568 6.49057C18.4379 7.27162 18.4379 8.53795 17.6568 9.319L14.8284 12.1475Z" fill="currentColor"/>
<path d="M12 14.9761L13.4142 16.3903L10.5858 19.2187C9.02372 20.7808 6.49106 20.7808 4.92896 19.2187C3.36686 17.6566 3.36686 15.124 4.92896 13.5619L7.75739 10.7334L9.1716 12.1476L6.34317 14.9761C5.56212 15.7571 5.56212 17.0234 6.34317 17.8045C7.12422 18.5855 8.39055 18.5855 9.1716 17.8045L12 14.9761Z" fill="currentColor"/>
<path d="M14.8285 10.733C15.219 10.3425 15.219 9.7093 14.8285 9.31878C14.4379 8.92825 13.8048 8.92825 13.4142 9.31878L9.17162 13.5614C8.78109 13.9519 8.78109 14.5851 9.17162 14.9756C9.56214 15.3661 10.1953 15.3661 10.5858 14.9756L14.8285 10.733Z" fill="currentColor"/>
</svg>
