<svg width="18" height="18" viewBox="0 0 18 18" fill="none" xmlns="http://www.w3.org/2000/svg">
<path d="M11.5563 9.5625C11.9781 9.5625 12.3492 9.33188 12.5403 8.98313L14.5533 5.3325C14.7614 4.96125 14.4915 4.5 14.0642 4.5H5.74225L5.21369 3.375H3.375V4.5H4.49958L6.52383 8.76938L5.76474 10.1419C5.35427 10.8956 5.89406 11.8125 6.74875 11.8125H13.4962V10.6875H6.74875L7.36727 9.5625H11.5563ZM6.27642 5.625H13.1083L11.5563 8.4375H7.60905L6.27642 5.625ZM6.74875 12.375C6.13023 12.375 5.62979 12.8813 5.62979 13.5C5.62979 14.1188 6.13023 14.625 6.74875 14.625C7.36727 14.625 7.87333 14.1188 7.87333 13.5C7.87333 12.8813 7.36727 12.375 6.74875 12.375ZM12.3717 12.375C11.7531 12.375 11.2527 12.8813 11.2527 13.5C11.2527 14.1188 11.7531 14.625 12.3717 14.625C12.9902 14.625 13.4962 14.1188 13.4962 13.5C13.4962 12.8813 12.9902 12.375 12.3717 12.375Z" fill="#6A23C6"/>
<path fill-rule="evenodd" clip-rule="evenodd" d="M1.96875 1.6875C1.81342 1.6875 1.6875 1.81342 1.6875 1.96875V9.28125H0V1.96875C0 0.881439 0.88144 0 1.96875 0H9.28125V1.6875H1.96875Z" fill="#6A23C6"/>
<path fill-rule="evenodd" clip-rule="evenodd" d="M16.0312 16.3125C16.1866 16.3125 16.3125 16.1866 16.3125 16.0312L16.3125 8.71875H18V16.0312C18 17.1186 17.1186 18 16.0312 18L8.71875 18V16.3125L16.0312 16.3125Z" fill="#6A23C6"/>
</svg>
