<svg width="73" height="18" viewBox="0 0 73 18" fill="none" xmlns="http://www.w3.org/2000/svg">
<path d="M11.5563 9.5625C11.9781 9.5625 12.3492 9.33188 12.5403 8.98313L14.5533 5.3325C14.7614 4.96125 14.4915 4.5 14.0642 4.5H5.74225L5.21369 3.375H3.375V4.5H4.49958L6.52383 8.76938L5.76474 10.1419C5.35427 10.8956 5.89406 11.8125 6.74875 11.8125H13.4962V10.6875H6.74875L7.36727 9.5625H11.5563ZM6.27642 5.625H13.1083L11.5563 8.4375H7.60905L6.27642 5.625ZM6.74875 12.375C6.13023 12.375 5.62979 12.8813 5.62979 13.5C5.62979 14.1188 6.13023 14.625 6.74875 14.625C7.36727 14.625 7.87333 14.1188 7.87333 13.5C7.87333 12.8813 7.36727 12.375 6.74875 12.375ZM12.3717 12.375C11.7531 12.375 11.2527 12.8813 11.2527 13.5C11.2527 14.1188 11.7531 14.625 12.3717 14.625C12.9902 14.625 13.4962 14.1188 13.4962 13.5C13.4962 12.8813 12.9902 12.375 12.3717 12.375Z" fill="currentColor"/>
<path fill-rule="evenodd" clip-rule="evenodd" d="M1.96875 1.6875C1.81342 1.6875 1.6875 1.81342 1.6875 1.96875V9.28125H0V1.96875C0 0.881439 0.88144 0 1.96875 0H9.28125V1.6875H1.96875Z" fill="currentColor"/>
<path fill-rule="evenodd" clip-rule="evenodd" d="M16.0312 16.3125C16.1866 16.3125 16.3125 16.1866 16.3125 16.0312L16.3125 8.71875H18V16.0312C18 17.1186 17.1186 18 16.0312 18L8.71875 18V16.3125L16.0312 16.3125Z" fill="currentColor"/>
<path d="M35.3855 12.0998H37.6572V3.50134C37.6572 2.18503 36.7655 1.56934 35.4279 1.56934H34.1965V3.75611H35.3855V12.0998ZM33.1987 5.68811C33.1987 3.33149 30.7996 2.1638 28.3793 2.1638C25.9378 2.1638 23.5387 3.33149 23.5387 5.68811V7.04687C23.5387 9.40349 25.9378 10.5924 28.3793 10.5924C30.8208 10.5924 33.1987 9.44595 33.1987 7.04687V5.68811ZM25.7467 5.7518C25.7467 4.58411 27.2116 4.15949 28.3793 4.15949C29.5258 4.15949 30.9907 4.60534 30.9907 5.7518V7.02564C30.9907 8.19334 29.5258 8.61795 28.3793 8.61795C27.2116 8.61795 25.7467 8.19334 25.7467 7.02564V5.7518ZM27.2541 14.2866V11.5266H24.9612V14.4352C24.9612 15.7515 25.5981 16.4309 26.9144 16.4309H37.8695V14.2866H27.2541Z" fill="currentColor"/>
<path d="M53.6735 6.49487V3.52257C53.6735 2.20626 52.7605 1.59057 51.4442 1.59057H50.1916V3.77734H51.3805V16.4309H53.6735V8.68164H55.9239V6.49487H53.6735ZM40.0008 2.80072V4.98749H45.7331V7.93857H40.107V10.1253H45.7331V14.6475H48.0048V4.75395C48.0048 3.39518 47.4953 2.80072 46.1578 2.80072H40.0008Z" fill="currentColor"/>
<path d="M71.043 11.6115V9.40349H60.6824V7.93857H70.5972V5.83672H60.6824V4.43549H70.7882V2.24872H58.3895V9.59457C58.3895 10.9321 59.0476 11.6115 60.3852 11.6115H71.043ZM72.2532 15.3693V13.1826H57.1156V15.3693H72.2532Z" fill="currentColor"/>
</svg>
